<svg xmlns="http://www.w3.org/2000/svg" viewBox="0 0 1920 1080" fill="none">
  <defs>
    <linearGradient id="oceanGrad" x1="0%" y1="0%" x2="0%" y2="100%">
      <stop offset="0%" style="stop-color:#001845;stop-opacity:1" />
      <stop offset="50%" style="stop-color:#002868;stop-opacity:1" />
      <stop offset="100%" style="stop-color:#0066CC;stop-opacity:1" />
    </linearGradient>
    <pattern id="waves" x="0" y="0" width="100" height="40" patternUnits="userSpaceOnUse">
      <path d="M0 20 Q25 10, 50 20 T100 20" stroke="#FFFFFF" stroke-width="0.5" fill="none" opacity="0.1"/>
      <path d="M0 30 Q25 20, 50 30 T100 30" stroke="#FFFFFF" stroke-width="0.5" fill="none" opacity="0.05"/>
    </pattern>
  </defs>
  
  <rect width="1920" height="1080" fill="url(#oceanGrad)"/>
  <rect width="1920" height="1080" fill="url(#waves)"/>
  
  <!-- Fishing boat silhouette -->
  <g transform="translate(1400, 400)" opacity="0.15">
    <path d="M 0 0 L -80 -40 L -100 -35 L -120 -40 L -200 0 L -180 20 L -20 20 Z" fill="#FFFFFF"/>
    <rect x="-140" y="-80" width="20" height="40" fill="#FFFFFF"/>
    <polygon points="-130,-80 -110,-120 -150,-120" fill="#FFFFFF"/>
  </g>
  
  <!-- Fish school -->
  <g opacity="0.1">
    <ellipse cx="600" cy="700" rx="15" ry="8" fill="#FFFFFF" transform="rotate(-20 600 700)"/>
    <ellipse cx="650" cy="720" rx="15" ry="8" fill="#FFFFFF" transform="rotate(-15 650 720)"/>
    <ellipse cx="680" cy="680" rx="15" ry="8" fill="#FFFFFF" transform="rotate(-25 680 680)"/>
    <ellipse cx="620" cy="750" rx="15" ry="8" fill="#FFFFFF" transform="rotate(-10 620 750)"/>
  </g>
  
  <!-- Abstract waves overlay -->
  <path d="M 0 800 Q 480 750, 960 800 T 1920 800 L 1920 1080 L 0 1080 Z" fill="#003A8C" opacity="0.3"/>
  <path d="M 0 850 Q 480 800, 960 850 T 1920 850 L 1920 1080 L 0 1080 Z" fill="#0066CC" opacity="0.2"/>
</svg>
