<svg xmlns="http://www.w3.org/2000/svg" viewBox="0 0 200 200" fill="none">
  <!-- Circular background -->
  <circle cx="100" cy="100" r="95" fill="#002868"/>
  <circle cx="100" cy="100" r="88" fill="#003A8C"/>
  
  <!-- Wave pattern -->
  <path d="M40 120 Q60 110, 80 120 T120 120 T160 120" stroke="#0066CC" stroke-width="3" fill="none"/>
  <path d="M40 130 Q60 120, 80 130 T120 130 T160 130" stroke="#0066CC" stroke-width="3" fill="none" opacity="0.7"/>
  <path d="M40 140 Q60 130, 80 140 T120 140 T160 140" stroke="#0066CC" stroke-width="3" fill="none" opacity="0.5"/>
  
  <!-- Fish silhouette -->
  <g transform="translate(100, 80)">
    <path d="M -20 0 L -30 -8 L -35 -5 L -30 0 L -35 5 L -30 8 Z" fill="#FFFFFF"/>
    <ellipse cx="0" cy="0" rx="20" ry="12" fill="#FFFFFF"/>
    <path d="M 18 0 L 30 -10 L 30 10 Z" fill="#FFFFFF"/>
    <circle cx="10" cy="-3" r="2" fill="#002868"/>
    <path d="M -5 -8 L 0 -12 L 5 -8" stroke="#00A86B" stroke-width="2" fill="none"/>
    <path d="M -5 8 L 0 12 L 5 8" stroke="#00A86B" stroke-width="2" fill="none"/>
  </g>
  
  <!-- Anchor element -->
  <g transform="translate(100, 145)">
    <rect x="-2" y="-15" width="4" height="20" fill="#C60C30" rx="2"/>
    <circle cx="0" cy="-15" r="5" fill="none" stroke="#C60C30" stroke-width="2"/>
    <path d="M -12 5 L 0 0 L 12 5 L 10 10 L 8 8 L 8 15 L -8 15 L -8 8 L -10 10 Z" fill="#C60C30"/>
  </g>
  
  <!-- Outer ring -->
  <circle cx="100" cy="100" r="95" stroke="#00A86B" stroke-width="2" fill="none"/>
  <circle cx="100" cy="100" r="90" stroke="#FFFFFF" stroke-width="1" fill="none" opacity="0.3"/>
</svg>
