<svg xmlns="http://www.w3.org/2000/svg" viewBox="0 0 1440 320" preserveAspectRatio="none">
  <path fill="currentColor" fill-opacity="0.1" d="M0,96L48,112C96,128,192,160,288,160C384,160,480,128,576,122.7C672,117,768,139,864,144C960,149,1056,139,1152,122.7C1248,107,1344,85,1392,74.7L1440,64L1440,320L1392,320C1344,320,1248,320,1152,320C1056,320,960,320,864,320C768,320,672,320,576,320C480,320,384,320,288,320C192,320,96,320,48,320L0,320Z"></path>
  <path fill="currentColor" fill-opacity="0.2" d="M0,192L48,197.3C96,203,192,213,288,229.3C384,245,480,267,576,250.7C672,235,768,181,864,181.3C960,181,1056,235,1152,234.7C1248,235,1344,181,1392,154.7L1440,128L1440,320L1392,320C1344,320,1248,320,1152,320C1056,320,960,320,864,320C768,320,672,320,576,320C480,320,384,320,288,320C192,320,96,320,48,320L0,320Z"></path>
  <path fill="currentColor" fill-opacity="0.3" d="M0,224L48,213.3C96,203,192,181,288,186.7C384,192,480,224,576,234.7C672,245,768,235,864,213.3C960,192,1056,160,1152,154.7C1248,149,1344,171,1392,181.3L1440,192L1440,320L1392,320C1344,320,1248,320,1152,320C1056,320,960,320,864,320C768,320,672,320,576,320C480,320,384,320,288,320C192,320,96,320,48,320L0,320Z"></path>
</svg>
